<svg xmlns="http://www.w3.org/2000/svg" width="1200" height="630" viewBox="0 0 1200 630" role="img" aria-labelledby="title desc"><title id="title">浏览器代理设置指南：系统代理、扩展与独立配置</title><desc id="desc">与文章内容匹配的机场雷达原创插画</desc><defs><linearGradient id="bg" x1="0" x2="1" y1="0" y2="1"><stop stop-color="#061b1d"/><stop offset="1" stop-color="white" stop-opacity=".4"/></linearGradient><pattern id="dots" width="24" height="24" patternUnits="userSpaceOnUse"><circle cx="3" cy="3" r="2" fill="#65ffe3" opacity=".09"/></pattern></defs><rect width="1200" height="630" fill="url(#bg)"/><rect width="1200" height="630" fill="url(#dots)"/><path d="M0 555 C270 490 430 625 720 535 C900 480 1050 520 1200 455 V630 H0 Z" fill="#16d6b2" opacity=".14"/><g color="#65ffe3"><rect x="120" y="85" width="565" height="435" rx="28" fill="none" stroke="currentColor" stroke-width="20"/><path d="M120 180 H685" stroke="currentColor" stroke-width="18"/><circle cx="170" cy="135" r="13" fill="currentColor"/><circle cx="215" cy="135" r="13" fill="currentColor"/><circle cx="260" cy="135" r="13" fill="currentColor"/><path d="M230 335 H560 M510 280 L565 335 L510 390" fill="none" stroke="currentColor" stroke-width="20"/></g><g transform="translate(810 82)"><rect width="300" height="62" rx="31" fill="#65ffe3"/><text x="150" y="41" text-anchor="middle" font-family="Microsoft YaHei,Arial,sans-serif" font-size="25" font-weight="700" fill="white">客户端</text><path d="M0 115 H300" stroke="#65ffe3" stroke-width="3" opacity=".25"/><text y="163" font-family="Arial,sans-serif" font-size="21" font-weight="700" letter-spacing="4" fill="#65ffe3">JICHANG RADAR</text><text y="215" font-family="Microsoft YaHei,Arial,sans-serif" font-size="25" font-weight="700" fill="#65ffe3" opacity=".68">文章主题原创插画</text></g></svg>