<svg xmlns="http://www.w3.org/2000/svg" width="1200" height="630" viewBox="0 0 1200 630" role="img" aria-labelledby="title desc"><title id="title">VPN 机场术语表：节点、订阅、倍率、专线、IPLC</title><desc id="desc">与文章内容匹配的机场雷达原创插画</desc><defs><linearGradient id="bg" x1="0" x2="1" y1="0" y2="1"><stop stop-color="#07111f"/><stop offset="1" stop-color="white" stop-opacity=".4"/></linearGradient><pattern id="dots" width="24" height="24" patternUnits="userSpaceOnUse"><circle cx="3" cy="3" r="2" fill="#69f0ff" opacity=".09"/></pattern></defs><rect width="1200" height="630" fill="url(#bg)"/><rect width="1200" height="630" fill="url(#dots)"/><path d="M0 555 C270 490 430 625 720 535 C900 480 1050 520 1200 455 V630 H0 Z" fill="#ff6b35" opacity=".14"/><g color="#69f0ff"><path d="M155 100 H615 Q660 100 660 150 V490 Q660 540 615 540 H155 Z" fill="none" stroke="currentColor" stroke-width="20"/><path d="M245 100 V540 M315 210 H570 M315 295 H530 M315 380 H580 M315 465 H505" stroke="currentColor" stroke-width="17" stroke-linecap="round"/><path d="M155 100 Q220 150 245 205 Q220 260 155 305 Q220 350 245 405 Q220 475 155 540" fill="none" stroke="currentColor" stroke-width="15"/></g><g transform="translate(810 82)"><rect width="300" height="62" rx="31" fill="#69f0ff"/><text x="150" y="41" text-anchor="middle" font-family="Microsoft YaHei,Arial,sans-serif" font-size="25" font-weight="700" fill="white">新手指南</text><path d="M0 115 H300" stroke="#69f0ff" stroke-width="3" opacity=".25"/><text y="163" font-family="Arial,sans-serif" font-size="21" font-weight="700" letter-spacing="4" fill="#69f0ff">JICHANG RADAR</text><text y="215" font-family="Microsoft YaHei,Arial,sans-serif" font-size="25" font-weight="700" fill="#69f0ff" opacity=".68">文章主题原创插画</text></g></svg>